<svg xmlns="http://www.w3.org/2000/svg" viewBox="0 0 295.63 71.62"><defs><style>.cls-1{fill:#20c0c5;}</style></defs><g id="Capa_2" data-name="Capa 2"><g id="Capa_1-2" data-name="Capa 1"><path d="M6.75,38A20.39,20.39,0,0,1,0,34.86l3-6.61a20.28,20.28,0,0,0,5.8,2.87,21.87,21.87,0,0,0,6.73,1.08A10.78,10.78,0,0,0,21,31.09a3.34,3.34,0,0,0,1.78-2.95,2.81,2.81,0,0,0-1.05-2.25,8,8,0,0,0-2.71-1.44c-1.11-.36-2.6-.76-4.48-1.19a62.27,62.27,0,0,1-7.1-2.06,11.57,11.57,0,0,1-4.74-3.31,8.93,8.93,0,0,1-2-6.07,10.57,10.57,0,0,1,1.79-6A12,12,0,0,1,7.94,1.57,22,22,0,0,1,16.75,0a29.06,29.06,0,0,1,7.1.87,21.18,21.18,0,0,1,6.08,2.49L27.22,10a21.17,21.17,0,0,0-10.52-3,9.9,9.9,0,0,0-5.45,1.19,3.63,3.63,0,0,0-1.76,3.15,3.09,3.09,0,0,0,2,2.9,32.48,32.48,0,0,0,6.21,1.87,59.72,59.72,0,0,1,7.1,2.06,11.72,11.72,0,0,1,4.74,3.25,8.72,8.72,0,0,1,2,6,10.34,10.34,0,0,1-1.81,5.93,12.22,12.22,0,0,1-5.45,4.26,22.19,22.19,0,0,1-8.84,1.57A30.79,30.79,0,0,1,6.75,38Z"/><path d="M46.6,36.73a18.81,18.81,0,0,1-7.38-7,19.25,19.25,0,0,1-2.68-10.11A19.31,19.31,0,0,1,39.22,9.51a18.81,18.81,0,0,1,7.38-7A21.89,21.89,0,0,1,57.14,0a22.08,22.08,0,0,1,8.92,1.74,17.77,17.77,0,0,1,6.7,5l-5.64,5.21a12.12,12.12,0,0,0-9.54-4.45A12.67,12.67,0,0,0,51.29,9,10.9,10.9,0,0,0,47,13.34a12.67,12.67,0,0,0-1.55,6.29A12.63,12.63,0,0,0,47,25.91a10.9,10.9,0,0,0,4.31,4.31,12.67,12.67,0,0,0,6.29,1.55,12.07,12.07,0,0,0,9.54-4.5l5.64,5.2A17.58,17.58,0,0,1,66,37.52a22.38,22.38,0,0,1-8.94,1.73A21.78,21.78,0,0,1,46.6,36.73Z"/><path d="M109.4,31.55V38.6H80V.65H108.7V7.7h-20v8.24h17.62v6.83H88.75v8.78Z"/><path d="M152.56.65v38h-7.21l-18.92-23v23h-8.68V.65H125l18.86,23V.65Z"/><path d="M162.91.65h8.79v38h-8.79Z"/><path d="M195.88,23.69,190.78,29V38.6h-8.73V.65h8.73V18.38L207.59.65h9.76L201.62,17.57l16.65,21H208Z"/><path class="cls-1" d="M227.18,34.75q-4.52-4.5-4.52-12.85V.65h8.78V21.58q0,10.19,8.46,10.19a7.93,7.93,0,0,0,6.29-2.47c1.44-1.64,2.17-4.22,2.17-7.72V.65H257V21.9q0,8.36-4.53,12.85t-12.66,4.5Q231.71,39.25,227.18,34.75Z"/><path class="cls-1" d="M270.83,38a20.39,20.39,0,0,1-6.75-3.17l3-6.61a20.28,20.28,0,0,0,5.8,2.87,21.85,21.85,0,0,0,6.72,1.08,10.73,10.73,0,0,0,5.53-1.11,3.34,3.34,0,0,0,1.79-2.95,2.81,2.81,0,0,0-1-2.25,8,8,0,0,0-2.72-1.44c-1.1-.36-2.59-.76-4.47-1.19a61.67,61.67,0,0,1-7.1-2.06,11.51,11.51,0,0,1-4.74-3.31,8.93,8.93,0,0,1-2-6.07,10.5,10.5,0,0,1,1.79-6A12,12,0,0,1,272,1.57,22,22,0,0,1,280.83,0a29.06,29.06,0,0,1,7.1.87A21,21,0,0,1,294,3.36L291.29,10a21.11,21.11,0,0,0-10.51-3,9.9,9.9,0,0,0-5.45,1.19,3.63,3.63,0,0,0-1.76,3.15,3.07,3.07,0,0,0,2,2.9,32.25,32.25,0,0,0,6.21,1.87,59.72,59.72,0,0,1,7.1,2.06,11.72,11.72,0,0,1,4.74,3.25,8.72,8.72,0,0,1,2,6,10.28,10.28,0,0,1-1.82,5.93,12.19,12.19,0,0,1-5.44,4.26,22.22,22.22,0,0,1-8.84,1.57A30.79,30.79,0,0,1,270.83,38Z"/><path class="cls-1" d="M5.53,70.85a12.84,12.84,0,0,1-4.25-2l1.88-4.16A12.84,12.84,0,0,0,6.81,66.5a13.85,13.85,0,0,0,4.23.68,6.72,6.72,0,0,0,3.48-.7,2.09,2.09,0,0,0,1.12-1.86A1.76,1.76,0,0,0,15,63.21a5,5,0,0,0-1.71-.91c-.69-.22-1.63-.48-2.81-.75A39,39,0,0,1,6,60.26a7.33,7.33,0,0,1-3-2.09,5.59,5.59,0,0,1-1.24-3.82,6.67,6.67,0,0,1,1.12-3.77,7.69,7.69,0,0,1,3.4-2.67,13.83,13.83,0,0,1,5.54-1,18.48,18.48,0,0,1,4.47.54A13.36,13.36,0,0,1,20.11,49l-1.7,4.2a13.36,13.36,0,0,0-6.62-1.88,6.21,6.21,0,0,0-3.43.75,2.29,2.29,0,0,0-1.11,2,2,2,0,0,0,1.28,1.83,20.28,20.28,0,0,0,3.91,1.17,41,41,0,0,1,4.47,1.3,7.3,7.3,0,0,1,3,2,5.47,5.47,0,0,1,1.25,3.78A6.55,6.55,0,0,1,20,68a7.68,7.68,0,0,1-3.43,2.68,13.93,13.93,0,0,1-5.56,1A19.59,19.59,0,0,1,5.53,70.85Z"/><path class="cls-1" d="M39.86,51.83H32.22v-4.5H53v4.5H45.39V71.21H39.86Z"/><path class="cls-1" d="M81.55,71.21,77,64.55H71.86v6.66H66.34V47.33H76.67a13.34,13.34,0,0,1,5.51,1.05A7.91,7.91,0,0,1,87,56a7.78,7.78,0,0,1-4.91,7.54l5.36,7.68ZM80.15,52.9a5.81,5.81,0,0,0-3.78-1.07H71.86v8.32h4.51a5.7,5.7,0,0,0,3.78-1.09,4.3,4.3,0,0,0,0-6.16Z"/><path class="cls-1" d="M120.24,66.77v4.44H101.75V47.33h18v4.43H107.24V57h11.08v4.3H107.24v5.52Z"/><path class="cls-1" d="M150.7,66.09H139.61l-2.11,5.12h-5.67l10.65-23.88h5.46l10.67,23.88h-5.8ZM149,61.89l-3.79-9.14-3.78,9.14Z"/><path class="cls-1" d="M193.17,71.21l0-14.33-7,11.8h-2.49l-7-11.49v14h-5.18V47.33H176L185,62.17l8.8-14.84h4.54l.07,23.88Z"/><path class="cls-1" d="M214.35,47.33h5.53V71.21h-5.53Z"/><path class="cls-1" d="M257.78,47.33V71.21h-4.54l-11.9-14.5v14.5h-5.46V47.33h4.57l11.87,14.49V47.33Z"/><path class="cls-1" d="M289.91,58.89h5v9.69a14.18,14.18,0,0,1-4.5,2.25,17.6,17.6,0,0,1-5.15.79A14,14,0,0,1,278.62,70a11.73,11.73,0,0,1-4.65-4.4,12.83,12.83,0,0,1,0-12.73,11.78,11.78,0,0,1,4.69-4.4,14.3,14.3,0,0,1,6.75-1.58,14.91,14.91,0,0,1,5.7,1,11.33,11.33,0,0,1,4.3,3.08l-3.55,3.27a8.22,8.22,0,0,0-6.18-2.7,8.36,8.36,0,0,0-4.05,1,6.86,6.86,0,0,0-2.77,2.7,7.93,7.93,0,0,0-1,4,7.83,7.83,0,0,0,1,3.95,7,7,0,0,0,2.75,2.72,8.23,8.23,0,0,0,4,1,8.84,8.84,0,0,0,4.29-1Z"/></g></g></svg>